<?xml version="1.0" encoding="utf-8"?>
<!-- Generator: Adobe Illustrator 27.1.0, SVG Export Plug-In . SVG Version: 6.00 Build 0)  -->
<svg version="1.1" xmlns="http://www.w3.org/2000/svg" xmlns:xlink="http://www.w3.org/1999/xlink" x="0px" y="0px"
	 viewBox="0 0 595.28 595.28" style="enable-background:new 0 0 595.28 595.28;" xml:space="preserve">
<style type="text/css">
	.st0{fill-rule:evenodd;clip-rule:evenodd;fill:#FFFFFF;}
	.st1{fill:#FFFFFF;}
</style>
<g id="Camada_1">
	<g>
		<path class="st0" d="M297.6,14.61C137.36,14.61,7.39,144.5,7.39,304.82c0,128.23,83.17,237.04,198.5,275.36
			c14.49,2.68,19.85-6.3,19.85-13.98c0-6.88-0.29-29.77-0.36-54.04c-80.77,17.53-97.8-34.27-97.8-34.27
			c-13.18-33.54-32.24-42.45-32.24-42.45c-26.3-18.04,1.96-17.68,1.96-17.68c29.12,2.03,44.48,29.92,44.48,29.92
			c25.86,44.34,67.88,31.51,84.47,24.12c2.61-18.76,10.14-31.59,18.4-38.83c-64.47-7.32-132.21-32.24-132.21-143.44
			c0-31.66,11.3-57.59,29.92-77.88c-3.04-7.32-12.97-36.8,2.83-76.79c0,0,24.34-7.82,79.83,29.77c23.18-6.45,47.96-9.63,72.66-9.78
			c24.63,0.14,49.48,3.33,72.73,9.78c55.42-37.53,79.76-29.77,79.76-29.77c15.79,39.99,5.87,69.47,2.83,76.79
			c18.62,20.36,29.85,46.22,29.85,77.88c0,111.49-67.88,136.05-132.5,143.22c10.43,8.98,19.7,26.66,19.7,53.75
			c0,38.83-0.36,70.05-0.36,79.62c0,7.75,5.22,16.81,19.92,13.91c115.26-38.4,198.28-147.13,198.28-275.36
			C587.81,144.5,457.92,14.61,297.6,14.61"/>
		<path class="st1" d="M117.29,431.31c-0.65,1.45-2.9,1.88-5,0.87c-2.1-0.94-3.26-2.9-2.61-4.35c0.65-1.45,2.9-1.88,5-0.87
			C116.86,427.83,118.01,429.86,117.29,431.31 M129.03,444.42c-1.38,1.3-4.13,0.65-5.94-1.38c-1.88-2.03-2.25-4.71-0.87-6.01
			c1.45-1.3,4.06-0.65,5.94,1.38C130.11,440.44,130.47,443.12,129.03,444.42 M140.47,461.08c-1.81,1.23-4.71,0.07-6.52-2.46
			c-1.81-2.61-1.81-5.65,0.07-6.95c1.81-1.23,4.64-0.14,6.52,2.46C142.28,456.74,142.28,459.85,140.47,461.08 M156.19,477.24
			c-1.59,1.74-5,1.3-7.46-1.09c-2.54-2.32-3.26-5.65-1.67-7.39c1.59-1.74,5-1.23,7.53,1.09
			C157.13,472.17,157.86,475.5,156.19,477.24 M177.78,486.65c-0.72,2.25-3.98,3.33-7.24,2.32c-3.26-1.01-5.43-3.62-4.78-5.94
			c0.65-2.32,3.98-3.33,7.24-2.32C176.33,481.66,178.5,484.34,177.78,486.65 M201.54,488.39c0.07,2.39-2.68,4.35-6.16,4.42
			c-3.48,0.07-6.3-1.88-6.3-4.2c0-2.39,2.75-4.35,6.23-4.42C198.72,484.05,201.54,486,201.54,488.39 M223.64,484.63
			c0.43,2.32-1.96,4.71-5.43,5.36c-3.4,0.65-6.52-0.8-6.88-3.12c-0.43-2.39,2.03-4.78,5.36-5.43
			C220.16,480.86,223.2,482.24,223.64,484.63"/>
	</g>
</g>
<g id="Camada_2">
</g>
</svg>
