<?xml version="1.0" encoding="utf-8"?>
<!-- Generator: Adobe Illustrator 27.1.0, SVG Export Plug-In . SVG Version: 6.00 Build 0)  -->
<svg version="1.1" xmlns="http://www.w3.org/2000/svg" xmlns:xlink="http://www.w3.org/1999/xlink" x="0px" y="0px"
	 viewBox="0 0 595.28 841.89" style="enable-background:new 0 0 595.28 841.89;" xml:space="preserve">
<style type="text/css">
	.st0{fill:none;stroke:#FFFFFF;stroke-width:62;stroke-miterlimit:10;}
	.st1{fill:none;stroke:#FFFFFF;stroke-width:19;stroke-miterlimit:10;}
	.st2{fill:none;stroke:#FFFFFF;stroke-width:59;stroke-miterlimit:10;}
	.st3{fill:none;stroke:#000000;stroke-width:12;stroke-miterlimit:10;}
	.st4{fill:none;stroke:#000000;stroke-width:59;stroke-miterlimit:10;}
	.st5{fill:#FFFFFF;stroke:#FFFFFF;stroke-width:12;stroke-miterlimit:10;}
	.st6{font-family:'MyriadPro-Regular';}
	.st7{font-size:253px;}
</style>
<g id="Camada_2">
	<path class="st0" d="M417.96,777.53L417.96,777.53c0.98-1.05,1.43-2.49,1.22-3.91l-9.82-66.03c-5.6-37.69,33.23-66.3,67.56-49.78
		l33.26,16c1.86,0.89,4.08,0.48,5.49-1.03l25.77-27.63c8.34-8.94,12.98-20.71,12.98-32.94V211.04c0-26.67-21.62-48.29-48.29-48.29
		H101.55c-26.67,0-48.29,21.62-48.29,48.29v528.08c0,26.31,21.05,47.77,47.35,48.28l281.1,5.47
		C395.42,793.14,408.61,787.56,417.96,777.53z"/>
	<line class="st1" x1="412.22" y1="783.45" x2="543.87" y2="641.61"/>
	<line class="st1" x1="438.42" y1="787.1" x2="560.16" y2="656.41"/>
	<line class="st1" x1="433.89" y1="782.68" x2="555.64" y2="651.99"/>
	<line class="st1" x1="416.15" y1="750.64" x2="501.58" y2="674.43"/>
	<line class="st1" x1="410.05" y1="737.15" x2="488.81" y2="670.65"/>
	<line class="st1" x1="409.23" y1="720.88" x2="481.38" y2="659.95"/>
	<line class="st1" x1="404.28" y1="704.9" x2="466.08" y2="652.72"/>
	<line class="st1" x1="407.65" y1="691.01" x2="457.06" y2="652.72"/>
</g>
<g id="Camada_3">
	<line class="st2" x1="139.74" y1="32" x2="327.07" y2="247.29"/>
	<path class="st3" d="M312.45,173.02"/>
	<path class="st3" d="M-201.75,0"/>
	<path class="st3" d="M-209.84,52.88"/>
	<path class="st4" d="M231.7,309.26"/>
	<path class="st4" d="M209.32,316.06"/>
	<path class="st4" d="M208.88,339.45"/>
	<polyline class="st2" points="319.21,234.15 321.01,240.42 314.94,238.04 	"/>
</g>
<g id="Camada_4">
</g>
<g id="Camada_5">
	<text transform="matrix(1 0 0 1 148.7364 557.2259)" class="st5 st6 st7">CV</text>
</g>
</svg>
